Coordinates
version=1
nRows=26
nColumns=24
inDegrees=yes

Units are S.I. units (second, meters, Newtons, ...)
Angles are in degrees.

endheader
time	pelvis_tilt	pelvis_list	pelvis_rotation	pelvis_tx	pelvis_ty	pelvis_tz	hip_flexion_r	hip_adduction_r	hip_rotation_r	knee_angle_r	ankle_angle_r	subtalar_angle_r	mtp_angle_r	hip_flexion_l	hip_adduction_l	hip_rotation_l	knee_angle_l	ankle_angle_l	subtalar_angle_l	mtp_angle_l	lumbar_extension	lumbar_bending	lumbar_rotation
      1.10800000	     -0.20448513	      5.33077190	     -2.16875054	      0.06529812	      1.05844635	      0.32831843	     20.87292978	     -4.51951499	      0.98497555	    -68.92462216	     -0.68076161	    -15.32915749	      7.70553935	     11.85337449	      8.69191362	     -3.20370685	    -12.51078674	      1.30798883	     -2.40439397	      6.54836575	      1.39922882	     -1.98107769	      2.08578346
      1.11216667	     -0.23081825	      5.32211834	     -2.19720790	      0.07043263	      1.05903801	      0.32830290	     21.45955003	     -4.42861233	      1.26597463	    -68.58269997	     -0.17490097	    -15.45114858	      7.64483314	     11.52038001	      8.71117799	     -3.16682093	    -12.41322966	      1.49600816	     -2.41040920	      6.54845354	      1.40464389	     -1.96017844	      2.04043334
      1.11633333	     -0.24474673	      5.31382844	     -2.23905463	      0.07555429	      1.05964008	      0.32821016	     22.01545856	     -4.34311979	      1.55465387	    -68.15138143	      0.20563605	    -15.56047865	      7.60680714	     11.16327754	      8.74101128	     -3.07619054	    -12.28343880	      1.63756426	     -2.42085907	      6.54802742	      1.39482701	     -1.88406668	      1.99534325
      1.12050000	     -0.25519578	      5.28487589	     -2.26620772	      0.08070459	      1.06025614	      0.32822379	     22.53392495	     -4.22478055	      1.82608978	    -67.63927626	      0.68387411	    -15.68864591	      7.56277755	     10.80233169	      8.73924431	     -3.01883658	    -12.17072303	      1.82239289	     -2.47864256	      6.54607443	      1.39258258	     -1.85047677	      1.95342212
      1.12466667	     -0.27071672	      5.25490713	     -2.29020046	      0.08585322	      1.06085174	      0.32820150	     23.03521394	     -4.10744501	      2.09234829	    -67.04531010	      1.09229822	    -15.78764501	      7.51961485	     10.44415811	      8.74164906	     -2.93718982	    -12.04696015	      1.98358330	     -2.53447599	      6.54281481	      1.38397486	     -1.80921649	      1.91123234
      1.12883333	     -0.28157566	      5.21668247	     -2.30789733	      0.09099841	      1.06144364	      0.32819995	     23.50538393	     -3.98103544	      2.34735484	    -66.36933850	      1.47361385	    -15.88780263	      7.47455418	     10.07854479	      8.73447902	     -2.84423360	    -11.92262933	      2.14272665	     -2.60887524	      6.53803701	      1.37226270	     -1.76043675	      1.86787766
      1.13300000	     -0.29611833	      5.17785400	     -2.32472247	      0.09616406	      1.06202026	      0.32818837	     23.95543623	     -3.85507158	      2.59653894	    -65.61994171	      1.81264929	    -15.99492534	      7.42932336	      9.71154994	      8.72995100	     -2.73163214	    -11.78797593	      2.29409841	     -2.69507140	      6.53207846	      1.36286210	     -1.71088847	      1.82430555
      1.13716667	     -0.31099012	      5.14438158	     -2.34479769	      0.10133132	      1.06256969	      0.32818380	     24.38305661	     -3.73346422	      2.84327953	    -64.79844840	      2.12448940	    -16.12484156	      7.38201540	      9.34069791	      8.73165746	     -2.60570313	    -11.64110942	      2.44471651	     -2.80007175	      6.52463479	      1.35498898	     -1.66510338	      1.77989860
      1.14133333	     -0.32561469	      5.10347945	     -2.35725312	      0.10650529	      1.06310197	      0.32818047	     24.78390264	     -3.60576569	      3.07763871	    -63.90242919	      2.38714664	    -16.27261564	      7.33617184	      8.96658182	      8.72737495	     -2.46631209	    -11.48801139	      2.58398122	     -2.91395756	      6.51643542	      1.35087891	     -1.61572399	      1.73634708
      1.14550000	     -0.32603027	      5.06259945	     -2.36569806	      0.11169897	      1.06363859	      0.32818124	     25.14002260	     -3.48184293	      3.29745731	    -62.93539722	      2.63092301	    -16.47907771	      7.27746688	      8.57130387	      8.72528938	     -2.30650256	    -11.33363701	      2.73728664	     -3.07256521	      6.50445522	      1.34197404	     -1.55614560	      1.68311999
      1.14966667	     -0.33065765	      5.03217996	     -2.37384231	      0.11689401	      1.06413316	      0.32818729	     25.47938847	     -3.37021751	      3.51151946	    -61.90289555	      2.80727595	    -16.69761306	      7.22259881	      8.17895180	      8.73450311	     -2.13618114	    -11.16934373	      2.86621372	     -3.22055308	      6.49240509	      1.33377534	     -1.51481585	      1.63483909
      1.15383333	     -0.33615802	      4.99835549	     -2.37817308	      0.12212458	      1.06461661	      0.32820412	     25.78872149	     -3.25736796	      3.70851767	    -60.79764140	      2.94455788	    -16.97666128	      7.16156641	      7.77953948	      8.74185264	     -1.94827367	    -10.99359018	      3.00014521	     -3.40355473	      6.47784837	      1.33805377	     -1.46918958	      1.58286520
      1.15800000	     -0.30712773	      4.93988992	     -2.32042987	      0.12725510	      1.06512344	      0.32811692	     26.02785702	     -3.15221854	      3.81122942	    -59.61299650	      2.92214540	    -17.58878278	      7.00121976	      7.35416090	      8.73471182	     -1.68197452	    -10.84218585	      3.13372674	     -3.81256043	      6.43405390	      1.16433744	     -1.36231176	      1.45112596
      1.16216667	     -0.32311481	      4.93550110	     -2.35823062	      0.13250703	      1.06550177	      0.32819852	     26.31075719	     -3.06168161	      4.03043216	    -58.39400549	      2.97634534	    -17.77642971	      6.94719386	      6.95714810	      8.76977878	     -1.50363772	    -10.63656201	      3.19096592	     -3.89522702	      6.41989083	      1.23830575	     -1.40128755	      1.42473226
      1.16633333	     -0.29050684	      4.87978685	     -2.30133242	      0.13771682	      1.06597942	      0.32815469	     26.48566315	     -2.96309450	      4.10604056	    -57.07221186	      2.82684035	    -18.51482683	      6.76695883	      6.51293755	      8.76396326	     -1.22356019	    -10.46370246	      3.32846529	     -4.31107216	      6.36742084	      1.10110465	     -1.26632751	      1.29090031
      1.17050000	     -0.30370167	      4.88157197	     -2.33526400	      0.14300296	      1.06630747	      0.32827884	     26.70873783	     -2.88458486	      4.29199250	    -55.73035257	      2.84647649	    -18.72842295	      6.70791356	      6.10814088	      8.80438783	     -1.05064026	    -10.25236551	      3.38192519	     -4.40016772	      6.35056047	      1.19041028	     -1.34785273	      1.27339895
      1.17466667	     -0.29272624	      4.83181963	     -2.27542909	      0.14823489	      1.06668409	      0.32824621	     26.85625918	     -2.80164983	      4.33105328	    -54.28686112	      2.55660173	    -19.57913631	      6.51673973	      5.68127285	      8.80382709	     -0.74905095	    -10.06959838	      3.50914844	     -4.84294699	      6.29126215	      1.06670764	     -1.18883803	      1.13957509
      1.17883333	     -0.27796793	      4.81169961	     -2.26485437	      0.15351971	      1.06701637	      0.32831368	     26.98292674	     -2.73179186	      4.41114070	    -52.80067480	      2.29612289	    -20.21418564	      6.29963825	      5.24140486	      8.82807179	     -0.49823018	     -9.85684996	      3.52952098	     -5.14538736	      6.22024133	      1.04354455	     -1.19406691	      1.02895374
      1.18300000	     -0.31871091	      4.81785865	     -2.28576640	      0.15883826	      1.06720749	      0.32847051	     27.15463931	     -2.67306263	      4.52390379	    -51.29307056	      2.29533424	    -20.44249513	      6.23046260	      4.86536645	      8.87149513	     -0.34000706	     -9.64822494	      3.61221485	     -5.25577937	      6.19872678	      1.15084942	     -1.29449351	      1.02177483
      1.18716667	     -0.28942788	      4.76748757	     -2.18950879	      0.16406840	      1.06753361	      0.32844285	     27.19258514	     -2.62103520	      4.45908644	    -49.66391531	      1.81541371	    -21.38276688	      5.96797172	      4.41719604	      8.86773070	      0.01543805	     -9.46576422	      3.67259793	     -5.69955888	      6.10893990	      1.00953055	     -1.22006445	      0.88115038
      1.19133333	     -0.34513831	      4.78280027	     -2.23890206	      0.16947241	      1.06763992	      0.32866835	     27.32643096	     -2.56861683	      4.55200017	    -48.05139829	      1.79384186	    -21.58782903	      5.89974183	      4.04589201	      8.91709916	      0.14537386	     -9.24097427	      3.76026452	     -5.82023797	      6.08625669	      1.15669745	     -1.27093979	      0.86645444
      1.19550000	     -0.37654071	      4.73958030	     -2.15611305	      0.17481660	      1.06781429	      0.32863014	     27.37454024	     -2.53202995	      4.45794428	    -46.32619985	      1.30147675	    -22.38168514	      5.69191769	      3.65019329	      8.91812732	      0.50957733	     -9.04718422	      3.87593919	     -6.23819648	      6.01237796	      1.11256633	     -1.07728567	      0.73707745
      1.19966667	     -0.42967491	      4.75280091	     -2.16523948	      0.18015529	      1.06786219	      0.32891089	     27.44965648	     -2.49589251	      4.46723750	    -44.61435114	      1.25103715	    -22.57406997	      5.62539815	      3.29745572	      8.95603322	      0.61352131	     -8.86712392	      3.92320300	     -6.36202377	      5.98800619	      1.24351087	     -1.27095090	      0.74210239
      1.20383333	     -0.46227396	      4.71071793	     -2.09286843	      0.18558100	      1.06798880	      0.32884618	     27.44396257	     -2.47663979	      4.30024219	    -42.79589794	      0.69615455	    -23.26594809	      5.42226970	      2.89072069	      8.95945305	      0.98588149	     -8.64653559	      4.01668185	     -6.76969182	      5.91059396	      1.19839120	     -1.04353974	      0.58948308
      1.20800000	     -0.52508803	      4.72912843	     -2.09824414	      0.19094831	      1.06795910	      0.32913708	     27.48001825	     -2.45915045	      4.22696239	    -41.00903244	      0.63858178	    -23.41067701	      5.35595870	      2.55190341	      8.99985150	      1.05977813	     -8.47134644	      4.06761650	     -6.89985244	      5.88431048	      1.33113254	     -1.26435577	      0.59636334
      1.21216667	     -0.57563736	      4.68831423	     -2.02752819	      0.19642982	      1.06799107	      0.32910330	     27.43986533	     -2.44785336	      4.00813740	    -39.11690973	      0.12355233	    -23.85298014	      5.17186716	      2.16490981	      8.99764674	      1.42361266	     -8.26007166	      4.16894095	     -7.24504364	      5.80895372	      1.32613486	     -1.04823392	      0.44429694
